<?xml version="1.0"?>
<svg xmlns="http://www.w3.org/2000/svg" xmlns:xlink="http://www.w3.org/1999/xlink" xmlns:svgjs="http://svgjs.com/svgjs" version="1.1" width="512" height="512" x="0" y="0" viewBox="0 0 512 512" style="enable-background:new 0 0 512 512" xml:space="preserve" class=""><g><g xmlns="http://www.w3.org/2000/svg" id="Out_line" data-name="Out line"><path d="m365.65674 18.34277a8.00035 8.00035 0 0 0 -5.65674-2.34277h-272a8.00008 8.00008 0 0 0 -8 8v464a8.00008 8.00008 0 0 0 8 8h336a8.00008 8.00008 0 0 0 8-8v-400a8.00076 8.00076 0 0 0 -2.34326-5.65723zm2.34326 24.97071 36.68652 36.68652h-36.68652zm-272 436.68652v-448h256v56a8.00008 8.00008 0 0 0 8 8h56v384z" fill="#ffffff" data-original="#000000" style="" class=""/><path d="m392 208h-272a8.00008 8.00008 0 0 0 -8 8v80a8.00008 8.00008 0 0 0 8 8h136v72a8.00008 8.00008 0 0 0 8 8h128a8.00008 8.00008 0 0 0 8-8v-160a8.00008 8.00008 0 0 0 -8-8zm-56 80v-24h48v24zm48 16v24h-48v-24zm-64-40v24h-48v-24zm-48-16v-24h48v24zm112 0h-48v-24h48zm-128-24v24h-128v-24zm-128 64v-24h128v24zm192 16v24h-48v-24zm-48 64v-24h48v24zm64 0v-24h48v24z" fill="#ffffff" data-original="#000000" style="" class=""/><path d="m160 176h64v16h-64z" fill="#ffffff" data-original="#000000" style="" class=""/><path d="m280 176h32v16h-32z" fill="#ffffff" data-original="#000000" style="" class=""/><path d="m344 176h32v16h-32z" fill="#ffffff" data-original="#000000" style="" class=""/><path d="m280 136h32v16h-32z" fill="#ffffff" data-original="#000000" style="" class=""/><path d="m328 136h32v16h-32z" fill="#ffffff" data-original="#000000" style="" class=""/><path d="m112 136h48v16h-48z" fill="#ffffff" data-original="#000000" style="" class=""/><path d="m176 136h48v16h-48z" fill="#ffffff" data-original="#000000" style="" class=""/><path d="m112 96h80v16h-80z" fill="#ffffff" data-original="#000000" style="" class=""/><path d="m280 96h56v16h-56z" fill="#ffffff" data-original="#000000" style="" class=""/><path d="m152 56h112v16h-112z" fill="#ffffff" data-original="#000000" style="" class=""/><path d="m304 432h72v16h-72z" fill="#ffffff" data-original="#000000" style="" class=""/><path d="m168 352h16a16.01833 16.01833 0 0 1 16 16h16a32.03635 32.03635 0 0 0 -32-32v-16h-16v16a32 32 0 0 0 0 64h16a16 16 0 0 1 0 32h-16a16.01833 16.01833 0 0 1 -16-16h-16a32.03635 32.03635 0 0 0 32 32v16h16v-16a32 32 0 0 0 0-64h-16a16 16 0 0 1 0-32z" fill="#ffffff" data-original="#000000" style="" class=""/></g></g></svg>
