<?xml version="1.0"?>
<svg xmlns="http://www.w3.org/2000/svg" xmlns:xlink="http://www.w3.org/1999/xlink" xmlns:svgjs="http://svgjs.com/svgjs" version="1.1" width="512" height="512" x="0" y="0" viewBox="0 0 64 64" style="enable-background:new 0 0 512 512" xml:space="preserve" class=""><g><g xmlns="http://www.w3.org/2000/svg" id="Layer_5" data-name="Layer 5"><path d="m52 11h-9v-1a1 1 0 0 0 -1-1h-3v-1a7 7 0 0 0 -14 0v1h-3a1 1 0 0 0 -1 1v1h-9a1 1 0 0 0 -1 1v50a1 1 0 0 0 1 1h40a1 1 0 0 0 1-1v-50a1 1 0 0 0 -1-1zm-25-3a5 5 0 0 1 10 0v1h-2v-1a3 3 0 0 0 -6 0v1h-2zm6 1h-2v-1a1 1 0 0 1 2 0zm-10 2h18v4h-18zm28 50h-38v-48h8v3a1 1 0 0 0 1 1h20a1 1 0 0 0 1-1v-3h8z" fill="#ffffff" data-original="#000000" style=""/><path d="m32 30.556a.779.779 0 0 1 -.778-.778h-2a2.776 2.776 0 0 0 1.778 2.584v1.86h2v-1.86a2.773 2.773 0 0 0 -1-5.362.778.778 0 1 1 .778-.778h2a2.776 2.776 0 0 0 -1.778-2.584v-1.86h-2v1.86a2.773 2.773 0 0 0 1 5.362.778.778 0 0 1 0 1.556z" fill="#ffffff" data-original="#000000" style=""/><path d="m32 37a9 9 0 1 0 -9-9 9.011 9.011 0 0 0 9 9zm0-16a7 7 0 1 1 -7 7 7.008 7.008 0 0 1 7-7z" fill="#ffffff" data-original="#000000" style=""/><path d="m22 39h-6a1 1 0 0 0 -1 1v6a1 1 0 0 0 1 1h6a1 1 0 0 0 1-1v-6a1 1 0 0 0 -1-1zm-1 6h-4v-4h4z" fill="#ffffff" data-original="#000000" style=""/><path d="m22 49h-6a1 1 0 0 0 -1 1v6a1 1 0 0 0 1 1h6a1 1 0 0 0 1-1v-6a1 1 0 0 0 -1-1zm-1 6h-4v-4h4z" fill="#ffffff" data-original="#000000" style=""/><path d="m25 40h24v2h-24z" fill="#ffffff" data-original="#000000" style=""/><path d="m25 44h24v2h-24z" fill="#ffffff" data-original="#000000" style=""/><path d="m25 50h24v2h-24z" fill="#ffffff" data-original="#000000" style=""/><path d="m25 54h24v2h-24z" fill="#ffffff" data-original="#000000" style=""/></g></g></svg>
