<?xml version="1.0"?>
<svg xmlns="http://www.w3.org/2000/svg" xmlns:xlink="http://www.w3.org/1999/xlink" xmlns:svgjs="http://svgjs.com/svgjs" version="1.1" width="512" height="512" x="0" y="0" viewBox="0 0 512 512" style="enable-background:new 0 0 512 512" xml:space="preserve" class=""><g><path xmlns="http://www.w3.org/2000/svg" d="M192,160V144H80v16H96v64H80v16H192V224H176V160Zm-80,0h16v64H112Zm48,64H144V160h16Z" fill="#ffffff" data-original="#000000" style="" class=""/><path xmlns="http://www.w3.org/2000/svg" d="M312,160H272a7.99977,7.99977,0,0,0-8,8v64a7.99977,7.99977,0,0,0,8,8h40a7.99977,7.99977,0,0,0,8-8V168A7.99977,7.99977,0,0,0,312,160Zm-8,64H280V176h24Z" fill="#ffffff" data-original="#000000" style="" class=""/><path xmlns="http://www.w3.org/2000/svg" d="M424,160H360a7.99977,7.99977,0,0,0-8,8v64a7.99977,7.99977,0,0,0,8,8h64a7.99977,7.99977,0,0,0,8-8V168A7.99977,7.99977,0,0,0,424,160Zm-56,16h16v48H368Zm48,48H400V176h16Z" fill="#ffffff" data-original="#000000" style="" class=""/><circle xmlns="http://www.w3.org/2000/svg" cx="368" cy="456" r="8" fill="#ffffff" data-original="#000000" style="" class=""/><circle xmlns="http://www.w3.org/2000/svg" cx="128" cy="456" r="8" fill="#ffffff" data-original="#000000" style="" class=""/><rect xmlns="http://www.w3.org/2000/svg" x="192" y="408" width="24" height="16" fill="#ffffff" data-original="#000000" style="" class=""/><path xmlns="http://www.w3.org/2000/svg" d="M495.99408,312a7.9874,7.9874,0,0,0-1.13422-4.11572L472,269.78442V128h-.00592a7.9874,7.9874,0,0,0-1.13422-4.11572L448,85.78442V24a7.99977,7.99977,0,0,0-8-8H136v.00635c-.04865.00024-.09631-.006-.145-.00489a7.99859,7.99859,0,0,0-6.14551,3.05616l-88,112A7.99909,7.99909,0,0,0,40,136V269.78442L17.14014,307.88428A7.9874,7.9874,0,0,0,16.00592,312H16V488a7.99977,7.99977,0,0,0,8,8H488a7.99977,7.99977,0,0,0,8-8V312Zm-88.799,136a40.004,40.004,0,0,0-78.39014,0H299.99976L280,421.3335V392h94.11133l48,24H408v16h24v4.686L420.686,448ZM64,408v-3.35742L114.12451,376H124.686l13.65722,13.65674A7.99877,7.99877,0,0,0,144,392H264v32a7.99948,7.99948,0,0,0,1.6001,4.7998L280.00024,448H167.19507a39.99731,39.99731,0,0,0-77.59461-3.176L64,434.584V424H88V408Zm144-88v56H192V352a7.99977,7.99977,0,0,0-8-8H168a7.99927,7.99927,0,0,0-6.3999,3.2002l-18.46546,24.6206-9.4779-9.47754A7.99877,7.99877,0,0,0,128,360H112a7.99958,7.99958,0,0,0-3.96924,1.0542L80,377.07178V320Zm48,16h-8a7.99977,7.99977,0,0,0-8,8v32H224V320h32Zm-80,40H159.99988L172,360h4ZM88.39691,461.575A39.79641,39.79641,0,0,0,96.02185,480H80V458.21619ZM104,456a24,24,0,1,1,24,24A24.0275,24.0275,0,0,1,104,456Zm63.19507,8H208v16H159.97815A39.8334,39.8334,0,0,0,167.19507,464ZM224,464h32v16H224Zm48,0h56.80493a39.8334,39.8334,0,0,0,7.21692,16H272Zm72-8a24,24,0,1,1,24,24A24.0275,24.0275,0,0,1,344,456Zm88-52.94409-48-24V352h48ZM368,376H330.29492L320,369.56567V352h48Zm-112,0V352h5.70557l38.39972,24Zm12.5293-72-14.4-24H459.4707l14.39991,24ZM352,120H336V104h16Zm8-32H328a7.99977,7.99977,0,0,0-8,8v24H294.31671L344,39.26416,393.68329,120H368V96A7.99977,7.99977,0,0,0,360,88Zm-84.47064,32h-37.4L252.5293,96h37.76928ZM240,85.78442l-17.11078,28.51807L153.24866,32H240ZM232,136H456V264H232Zm180.47064-16L397.70142,96H435.4707l14.39991,24ZM432,80H387.85522L358.31677,32H432ZM329.68323,32,300.14478,80H256V32ZM56,138.76709,136.22949,36.65625,216,130.93018V264H56ZM52.5293,280H235.4707l14.39991,24H38.12939ZM32,480V320H64v66.2146l-11.96924,6.8396A7.99919,7.99919,0,0,0,48,400v40a7.99975,7.99975,0,0,0,5.02881,7.42773L64,451.81616V480Zm367.97815,0a39.8334,39.8334,0,0,0,7.21692-16H424a7.99877,7.99877,0,0,0,5.65674-2.34326l16-16A7.99877,7.99877,0,0,0,448,440V344a7.99977,7.99977,0,0,0-8-8H312a7.99977,7.99977,0,0,0-8,8v15.56567l-32-20V320H480V480Z" fill="#ffffff" data-original="#000000" style="" class=""/></g></svg>
