<?xml version="1.0"?>
<svg xmlns="http://www.w3.org/2000/svg" xmlns:xlink="http://www.w3.org/1999/xlink" xmlns:svgjs="http://svgjs.com/svgjs" version="1.1" width="512" height="512" x="0" y="0" viewBox="0 0 64 64" style="enable-background:new 0 0 512 512" xml:space="preserve" class=""><g><path xmlns="http://www.w3.org/2000/svg" d="m20 48h24v-12h-24zm16-10h2a3.844 3.844 0 0 0 1 2.559 3.844 3.844 0 0 0 1-2.559h2a5.864 5.864 0 0 1 -1.6 4 5.864 5.864 0 0 1 1.6 4h-2a3.844 3.844 0 0 0 -1-2.559 3.844 3.844 0 0 0 -1 2.559h-2a5.864 5.864 0 0 1 1.6-4 5.864 5.864 0 0 1 -1.6-4zm-7 3a3 3 0 0 1 6 0v5h-2v-2h-2v2h-2zm-7-3h6v2h-2v6h-2v-6h-2z" fill="#ffffff" data-original="#000000" style=""/><path xmlns="http://www.w3.org/2000/svg" d="m5 57h54v4h-54z" fill="#ffffff" data-original="#000000" style=""/><path xmlns="http://www.w3.org/2000/svg" d="m32 3.24-26.945 19.76h53.89zm0 16.76a5 5 0 1 1 5-5 5 5 0 0 1 -5 5z" fill="#ffffff" data-original="#000000" style=""/><path xmlns="http://www.w3.org/2000/svg" d="m33 41a1 1 0 0 0 -2 0v1h2z" fill="#ffffff" data-original="#000000" style=""/><path xmlns="http://www.w3.org/2000/svg" d="m49 29h8v2h-8z" fill="#ffffff" data-original="#000000" style=""/><path xmlns="http://www.w3.org/2000/svg" d="m7 29h8v2h-8z" fill="#ffffff" data-original="#000000" style=""/><path xmlns="http://www.w3.org/2000/svg" d="m7 53h8v2h-8z" fill="#ffffff" data-original="#000000" style=""/><path xmlns="http://www.w3.org/2000/svg" d="m5 25h54v2h-54z" fill="#ffffff" data-original="#000000" style=""/><path xmlns="http://www.w3.org/2000/svg" d="m9 33h4v18h-4z" fill="#ffffff" data-original="#000000" style=""/><path xmlns="http://www.w3.org/2000/svg" d="m49 53h8v2h-8z" fill="#ffffff" data-original="#000000" style=""/><path xmlns="http://www.w3.org/2000/svg" d="m51 33h4v18h-4z" fill="#ffffff" data-original="#000000" style=""/></g></svg>
